<svg width="228" height="43" viewBox="0 0 228 43" fill="none" xmlns="http://www.w3.org/2000/svg">
<g clip-path="url(#clip0_2069_1496)">
<path d="M61.4791 20.5557C60.744 20.1817 59.9828 19.8614 59.2014 19.5973C58.4545 19.3397 57.6912 19.1323 56.9166 18.9765C56.2986 18.8712 55.703 18.6613 55.1555 18.3557C54.6926 18.0779 54.4611 17.7325 54.4611 17.3196C54.4596 17.101 54.5133 16.8856 54.6172 16.6933C54.7211 16.501 54.8719 16.3381 55.0555 16.2196C55.4528 15.9353 55.9796 15.7927 56.6361 15.7918C57.3768 15.7918 57.9787 15.9904 58.4416 16.3876C58.9227 16.8109 59.2426 17.3874 59.3472 18.0196L63.8014 17.1126C63.705 16.3769 63.4589 15.6687 63.0781 15.0318C62.6973 14.395 62.19 13.8429 61.5875 13.4098C60.3356 12.4774 58.7347 12.0112 56.7847 12.0112C54.8495 12.0112 53.218 12.5422 51.8903 13.6043C50.5625 14.6663 49.8977 15.9913 49.8958 17.5793C49.8753 18.4033 50.053 19.2202 50.4139 19.9612C50.7257 20.5958 51.1953 21.1395 51.7778 21.5404C52.356 21.93 52.9772 22.2515 53.6291 22.4987C54.2879 22.7537 54.9624 22.9657 55.6486 23.1335C56.3217 23.2973 56.9389 23.4571 57.5 23.6126C57.9876 23.7341 58.4485 23.9446 58.8597 24.2335C59.0178 24.3387 59.1476 24.4811 59.2379 24.6482C59.3282 24.8152 59.3762 25.0019 59.3778 25.1918C59.3778 25.6547 59.1491 26.052 58.6916 26.3835C58.2342 26.7149 57.6426 26.8788 56.9166 26.8751C55.2602 26.8751 54.2759 26.1344 53.9639 24.6529L49.5153 25.5557C49.7569 27.0936 50.5296 28.3279 51.8333 29.2585C53.137 30.189 54.7903 30.6552 56.793 30.6571C58.8125 30.6571 60.5083 30.1219 61.8805 29.0515C63.2528 27.9811 63.9389 26.652 63.9389 25.064C63.9389 23.977 63.7074 23.0446 63.2444 22.2668C62.8308 21.5401 62.2184 20.9465 61.4791 20.5557Z" fill="white"/>
<path d="M74.5306 16.6666C73.4687 16.6494 72.4403 17.0384 71.6556 17.7541C70.8445 18.4791 70.2579 19.4545 69.8959 20.6804V16.9304H65.7514V35.5763H69.8959V26.6416C70.257 27.8675 70.8435 28.843 71.6556 29.568C72.4403 30.2836 73.4687 30.6726 74.5306 30.6554C76.1361 30.6554 77.4653 29.9865 78.5181 28.6485C79.5709 27.3105 80.0972 25.649 80.0972 23.6638C80.0972 21.6786 79.5709 20.017 78.5181 18.6791C77.4653 17.3411 76.1361 16.6703 74.5306 16.6666ZM74.9722 25.9554C74.7273 26.2453 74.4218 26.4779 74.0772 26.6367C73.7325 26.7956 73.3573 26.8769 72.9778 26.8749C72.5658 26.8889 72.1555 26.8158 71.7737 26.6602C71.3919 26.5046 71.0473 26.2701 70.7625 25.9721C70.1829 25.3675 69.894 24.5994 69.8959 23.6679C69.8977 22.7365 70.1866 21.9684 70.7625 21.3638C71.047 21.0655 71.3913 20.8305 71.7727 20.6742C72.1542 20.5179 72.5644 20.4439 72.9764 20.4568C73.3558 20.4541 73.7311 20.5347 74.076 20.6928C74.4208 20.8509 74.7268 21.0828 74.9722 21.3721C75.5278 21.9851 75.8056 22.749 75.8056 23.6638C75.8056 24.5786 75.5278 25.3425 74.9722 25.9554Z" fill="white"/>
<path d="M89.2389 16.6667C88.7665 16.6982 88.3046 16.8213 87.8792 17.0292C87.4561 17.2366 87.0588 17.6208 86.6875 18.1819C86.2778 18.8323 85.9762 19.5448 85.7945 20.2917V16.9319H81.6514V30.3972H85.7945V22.9167C85.7945 21.8287 86.2574 21.0736 87.1834 20.6514C88.1093 20.2292 89.2616 20.2852 90.6403 20.8194V16.9306C90.2039 16.7228 89.721 16.6319 89.2389 16.6667Z" fill="white"/>
<path d="M94.5208 10.8459C93.9476 10.8423 93.3909 11.0378 92.9457 11.3991C92.5006 11.7603 92.1947 12.2649 92.0802 12.8266C91.9657 13.3883 92.0498 13.9723 92.318 14.479C92.5862 14.9856 93.022 15.3834 93.551 15.6045C94.0799 15.8255 94.6691 15.8561 95.2181 15.691C95.7671 15.5259 96.2417 15.1754 96.561 14.6993C96.8802 14.2231 97.0243 13.6509 96.9686 13.0804C96.9129 12.5098 96.6609 11.9763 96.2556 11.5709C96.0315 11.3377 95.7619 11.153 95.4635 11.0283C95.1651 10.9036 94.8442 10.8415 94.5208 10.8459Z" fill="white"/>
<path d="M96.5917 16.9319H92.4486V30.3972H96.5917V16.9319Z" fill="white"/>
<path d="M106.821 16.6667C105.803 16.6487 104.811 16.9933 104.024 17.6389C103.231 18.2871 102.653 19.1718 102.289 20.2931V16.932H98.1458V30.3972H102.289V22.9167C102.275 22.5792 102.335 22.2427 102.465 21.9308C102.595 21.6189 102.791 21.3392 103.04 21.1111C103.54 20.6528 104.196 20.4236 105.008 20.4236C105.333 20.4137 105.656 20.4694 105.959 20.5876C106.262 20.7057 106.537 20.8838 106.769 21.1111C107.232 21.5685 107.464 22.1704 107.464 22.9167V30.4014H111.607V22.1361C111.607 20.5139 111.171 19.1977 110.3 18.1875C109.429 17.1773 108.269 16.6704 106.821 16.6667Z" fill="white"/>
<path d="M119.246 14.339V11.189L115.1 12.4251" fill="#F54F29"/>
<path d="M115.111 13.6987V16.8932H112.522V20.5196H115.111V24.9209C115.111 28.5459 117.009 30.3584 120.806 30.3584H122.489V26.7335H120.806C119.769 26.7335 119.251 26.2159 119.251 25.1807V20.5168H122.489V16.8904H119.251L119.24 15.5515" fill="white"/>
<path d="M128.443 12.2708H124.04V30.3971H136.471V26.5124H128.443V12.2708Z" fill="white"/>
<path d="M148.317 18.0556C147.221 17.1297 145.775 16.6667 143.979 16.6667C142.22 16.6667 140.8 17.0723 139.719 17.8834C138.639 18.6945 138.029 19.6806 137.889 20.8417L142.006 21.7223C142.058 21.2541 142.279 20.821 142.628 20.5042C142.972 20.1941 143.438 20.039 144.025 20.039C144.476 20.021 144.923 20.1381 145.307 20.3751C145.645 20.6001 145.813 20.8853 145.812 21.2306C145.812 21.7649 145.45 22.058 144.725 22.1098L142.889 22.2654C139.299 22.6117 137.504 24.0964 137.503 26.7195C137.503 27.8945 137.891 28.8441 138.668 29.5681C139.404 30.2773 140.39 30.6679 141.412 30.6556C143.675 30.6556 145.142 29.5163 145.815 27.2376V30.3973H149.958V22.1362C149.96 20.3417 149.413 18.9816 148.317 18.0556ZM145.817 24.9042C145.817 25.5431 145.527 26.1214 144.949 26.639C144.42 27.1374 143.721 27.4151 142.994 27.4154C142.563 27.4154 142.231 27.3205 141.997 27.1306C141.882 27.0376 141.791 26.9189 141.73 26.7841C141.669 26.6492 141.641 26.502 141.647 26.3542C141.647 25.7339 142.053 25.3714 142.864 25.2668L144.858 25.0334C145.187 25.0142 145.51 24.9444 145.817 24.8265V24.9042Z" fill="white"/>
<path d="M160.164 16.6666C159.102 16.6494 158.074 17.0384 157.289 17.7541C156.478 18.4791 155.891 19.4545 155.528 20.6804V11.2346H151.385V30.4013H155.528V26.6513C155.892 27.8772 156.479 28.8527 157.289 29.5777C158.074 30.2933 159.102 30.6823 160.164 30.6652C161.769 30.6652 163.099 29.9962 164.151 28.6582C165.204 27.3203 165.731 25.6587 165.731 23.6735C165.731 21.6883 165.204 20.0267 164.151 18.6888C163.099 17.3508 161.769 16.6767 160.164 16.6666ZM160.604 25.9499C160.359 26.2397 160.054 26.4722 159.709 26.6311C159.364 26.7899 158.989 26.8713 158.61 26.8693C158.198 26.8827 157.787 26.8087 157.406 26.6524C157.024 26.4961 156.68 26.261 156.396 25.9624C155.816 25.3578 155.527 24.5897 155.528 23.6582C155.529 22.7267 155.818 21.9587 156.396 21.3541C156.68 21.0557 157.025 20.8208 157.406 20.6645C157.788 20.5082 158.198 20.4342 158.61 20.4471C158.989 20.4452 159.364 20.5265 159.709 20.6854C160.054 20.8443 160.359 21.0768 160.604 21.3666C161.16 21.9795 161.437 22.7434 161.437 23.6582C161.437 24.573 161.16 25.3388 160.604 25.9555V25.9499Z" fill="white"/>
<path d="M173.836 12.2708H167.75V30.3971H173.836C176.442 30.3971 178.618 29.5295 180.364 27.7944C182.11 26.0592 182.982 23.9055 182.979 21.3333C182.979 18.761 182.107 16.6073 180.364 14.8721C178.62 13.137 176.444 12.2698 173.836 12.2708ZM179.3 26.836C177.831 28.312 176.001 29.0499 173.81 29.0499H169.2V13.611H173.81C176.001 13.611 177.831 14.349 179.3 15.8249C180.769 17.3008 181.502 19.137 181.5 21.3333C181.5 23.5268 180.767 25.361 179.3 26.836Z" fill="white"/>
<path d="M184.608 12.4249C184.479 12.4232 184.35 12.4475 184.23 12.4964C184.109 12.5453 184 12.6178 183.908 12.7096C183.817 12.8013 183.744 12.9106 183.695 13.0308C183.646 13.151 183.622 13.2798 183.624 13.4096C183.624 13.5714 183.664 13.7307 183.74 13.8733C183.816 14.016 183.926 14.1377 184.061 14.2277C184.195 14.3176 184.35 14.373 184.511 14.389C184.672 14.4051 184.834 14.3812 184.984 14.3195C185.133 14.2578 185.265 14.1602 185.368 14.0353C185.471 13.9104 185.542 13.7622 185.574 13.6036C185.606 13.445 185.598 13.2809 185.551 13.126C185.505 12.971 185.421 12.8299 185.307 12.7152C185.216 12.6218 185.108 12.5479 184.988 12.4979C184.867 12.448 184.738 12.4232 184.608 12.4249Z" fill="white"/>
<path d="M185.332 17.3708H183.908V30.3959H185.332V17.3708Z" fill="white"/>
<path d="M198.901 21.2041C198.472 20.0088 197.692 18.971 196.663 18.2263C195.626 17.4818 194.377 17.092 193.101 17.1152C191.288 17.1152 189.778 17.7583 188.569 19.0444C187.361 20.3305 186.757 21.9319 186.757 23.8486C186.757 25.7643 187.361 27.3694 188.569 28.6638C189.778 29.9583 191.288 30.6064 193.101 30.6083C194.377 30.6315 195.626 30.2418 196.663 29.4972C197.692 28.7526 198.472 27.7147 198.901 26.5194V29.0833C198.901 30.6194 198.384 31.9097 197.349 32.9541C196.313 33.9986 195.036 34.5208 193.515 34.5208C192.472 34.5387 191.448 34.241 190.576 33.6666C189.725 33.0998 189.055 32.2993 188.647 31.3611L187.326 31.9055C187.843 33.0752 188.689 34.0693 189.761 34.7666C190.876 35.4908 192.182 35.8652 193.511 35.8416C195.444 35.8416 197.065 35.1935 198.372 33.8972C199.68 32.6009 200.332 30.9953 200.328 29.0805V17.3708H198.903L198.901 21.2041ZM197.349 27.7166C196.313 28.7444 195.009 29.2578 193.438 29.2569C192.743 29.2696 192.053 29.1381 191.411 28.8709C190.769 28.6036 190.19 28.2064 189.71 27.7041C188.691 26.668 188.182 25.3819 188.182 23.8458C188.182 22.3263 188.691 21.0486 189.71 20.0125C190.191 19.5091 190.771 19.1111 191.414 18.8438C192.057 18.5765 192.748 18.4457 193.444 18.4597C195.019 18.4597 196.322 18.9731 197.356 20C198.389 21.0268 198.906 22.3088 198.908 23.8458C198.904 25.3986 198.384 26.6888 197.349 27.7166Z" fill="white"/>
<path d="M202.967 12.4249C202.742 12.4265 202.525 12.5059 202.352 12.6495C202.179 12.7931 202.062 12.9921 202.019 13.2126C201.977 13.4331 202.012 13.6616 202.118 13.8593C202.225 14.0569 202.397 14.2115 202.605 14.2967C202.813 14.3819 203.044 14.3925 203.258 14.3267C203.473 14.2609 203.659 14.1228 203.783 13.9358C203.907 13.7488 203.963 13.5245 203.941 13.3009C203.919 13.0774 203.82 12.8685 203.661 12.7096C203.571 12.6176 203.463 12.545 203.343 12.496C203.224 12.4471 203.096 12.4229 202.967 12.4249Z" fill="white"/>
<path d="M203.692 17.3708H202.268V30.3959H203.692V17.3708Z" fill="white"/>
<path d="M209.053 12.0112L207.628 12.4515V17.371H204.599V18.6918H207.628V26.0987C207.628 27.5654 207.981 28.6483 208.689 29.3473C209.396 30.0464 210.493 30.3964 211.978 30.3973H213.196V29.0765H211.978C210.925 29.0765 210.174 28.852 209.725 28.4029C209.276 27.9538 209.052 27.1941 209.053 26.1237V18.6918H213.196V17.371H209.053V12.0112Z" fill="white"/>
<path d="M223.436 18.2389C222.531 17.488 221.37 17.1125 219.954 17.1125C218.607 17.1125 217.424 17.4491 216.406 18.1223C215.387 18.7954 214.714 19.788 214.386 21.1001L215.758 21.5167C216.018 20.4278 216.523 19.638 217.274 19.1473C218.065 18.6426 218.989 18.3854 219.928 18.4084C220.964 18.4084 221.797 18.6676 222.428 19.1862C223.058 19.7047 223.374 20.4209 223.374 21.3348C223.374 22.319 222.778 22.8801 221.586 23.0181L218.401 23.3806C217.072 23.5362 216.007 23.9246 215.207 24.5459C214.407 25.1672 214.005 26.0385 214 27.1598C214 28.2301 214.376 29.0806 215.128 29.7112C215.88 30.3417 216.859 30.6565 218.067 30.6556C220.672 30.6556 222.442 29.3436 223.375 26.7195V30.3973H224.799V21.3598C224.797 20.0311 224.343 18.9908 223.436 18.2389ZM223.372 24.4889C223.379 25.1304 223.255 25.7665 223.008 26.3585C222.761 26.9504 222.396 27.4858 221.935 27.932C220.976 28.9005 219.763 29.3843 218.296 29.3834C217.45 29.3834 216.759 29.176 216.225 28.7612C215.968 28.57 215.76 28.3196 215.621 28.0311C215.481 27.7426 215.413 27.4246 215.422 27.1042C215.422 26.3635 215.694 25.7894 216.237 25.382C216.781 24.9746 217.502 24.72 218.4 24.6181L221.378 24.2556C222.482 24.1519 223.147 23.7463 223.372 23.0389V24.4889Z" fill="white"/>
<path d="M228.032 11.2346H226.608V30.3971H228.032V11.2346Z" fill="white"/>
<path d="M29.9555 22.8472C29.9567 23.2008 29.8831 23.5507 29.7394 23.8739C29.5958 24.197 29.3854 24.4861 29.1222 24.7222L29.1124 24.7305C29.0961 24.7564 29.0785 24.7814 29.0596 24.8055L18.9499 36.65C18.636 36.6194 14.1444 36.1889 13.6541 36.2L23.7638 24.3555C23.7875 24.3278 23.8036 24.2944 23.8104 24.2587C23.8173 24.2229 23.8147 24.1859 23.8029 24.1514C23.7912 24.1169 23.7706 24.0861 23.7433 24.062C23.716 24.0379 23.6828 24.0213 23.6471 24.0139L15.7388 22.3027C15.6935 22.2928 15.6493 22.2784 15.6069 22.2597C15.5763 22.2597 15.5472 22.2597 15.5166 22.2597C15.3625 22.2409 15.2105 22.2079 15.0624 22.1611H15.043C14.89 22.1114 14.7417 22.0482 14.5999 21.9722C14.2751 21.794 13.9935 21.5466 13.7748 21.2475C13.5562 20.9485 13.4059 20.605 13.3346 20.2415C13.2633 19.8779 13.2728 19.5032 13.3623 19.1437C13.4518 18.7842 13.6193 18.4487 13.8527 18.1611L13.8652 18.1472C13.9518 18.0409 14.0471 17.942 14.1499 17.8514C14.1581 17.8462 14.166 17.8407 14.1735 17.8347C14.1874 17.8153 14.2055 17.7958 14.2208 17.7778L25.2152 6.42358C25.586 6.45553 30.5638 6.87914 31.1569 6.8722L20.0305 18.3639C20.0039 18.3905 19.985 18.4238 19.9758 18.4603C19.9666 18.4968 19.9675 18.5351 19.9783 18.5711C19.9891 18.6071 20.0095 18.6396 20.0373 18.6649C20.065 18.6903 20.0992 18.7077 20.136 18.7153L27.6833 20.3472L27.7208 20.3569C27.8994 20.3769 28.0754 20.4161 28.2458 20.4736H28.2569C28.754 20.6433 29.1856 20.9644 29.491 21.3918C29.7964 21.8193 29.9603 22.3316 29.9597 22.8569L29.9555 22.8472Z" fill="white"/>
<path d="M5.13048 19.2264C5.0403 19.9275 4.99391 20.6335 4.99159 21.3403C4.98737 23.4439 5.39308 25.5281 6.18603 27.4764C6.21937 27.5625 6.2527 27.6459 6.2902 27.7306C6.30461 27.7649 6.32784 27.7948 6.35752 27.8172C6.38721 27.8397 6.42231 27.8539 6.45925 27.8584C6.49619 27.8629 6.53367 27.8576 6.56789 27.8429C6.6021 27.8283 6.63184 27.8049 6.65409 27.775C6.75956 27.6296 6.89747 27.5107 7.05687 27.4278C7.21543 27.3466 7.39121 27.3047 7.56937 27.3056C7.7251 27.3054 7.87924 27.3368 8.02247 27.398C8.16571 27.4591 8.29506 27.5486 8.4027 27.6611C8.50842 27.7715 8.59024 27.9024 8.64305 28.0458C8.69586 28.1892 8.71853 28.3419 8.70965 28.4945L8.4652 33.4403C8.4456 33.8361 8.27465 34.2091 7.98771 34.4824C7.70076 34.7556 7.31977 34.9081 6.92353 34.9084C6.81133 34.9091 6.69944 34.8965 6.5902 34.8709L1.44437 33.75C1.22889 33.7056 1.03368 33.5923 0.888134 33.4274C0.742583 33.2624 0.654564 33.0546 0.63733 32.8352C0.620097 32.6159 0.674579 32.3969 0.792576 32.2112C0.910573 32.0255 1.0857 31.8832 1.29159 31.8056L2.32076 31.4028C2.36534 31.381 2.41183 31.3633 2.45965 31.35C2.37076 31.1848 2.28325 31.0167 2.20131 30.8486C0.725532 27.8969 -0.0379359 24.6404 -0.0278556 21.3403C-0.0316475 18.4144 0.567628 15.5191 1.73257 12.835C2.89752 10.151 4.60313 7.73585 6.74298 5.74031C9.83737 2.84836 13.7213 0.941158 17.9018 0.260866C22.0822 -0.419425 26.3705 0.157882 30.2221 1.91948C30.4583 2.02642 30.6958 2.14309 30.936 2.26392C31.0139 2.2989 31.0899 2.33784 31.1638 2.38059C31.4584 2.55225 31.715 2.78187 31.9183 3.05557C32.1215 3.32926 32.2672 3.64134 32.3464 3.97293C32.4256 4.30452 32.4367 4.64873 32.3791 4.98474C32.3214 5.32075 32.1962 5.64157 32.011 5.92781C31.9721 5.98476 31.9305 6.04726 31.886 6.1042C31.7818 6.23768 31.6645 6.3605 31.536 6.47087L31.1888 6.82781L31.1583 6.85976C30.5652 6.8667 25.5874 6.44309 25.2166 6.41115L25.3194 6.3042L25.643 5.97087L25.6874 5.92643C25.7126 5.90067 25.7307 5.86887 25.74 5.83408C25.7493 5.7993 25.7495 5.76271 25.7406 5.72782C25.7317 5.69293 25.7139 5.66093 25.689 5.6349C25.6642 5.60887 25.633 5.58969 25.5985 5.5792C23.3501 4.97009 20.9973 4.84922 18.6983 5.22473C16.3993 5.60023 14.2073 6.46341 12.2695 7.75628C10.3317 9.04914 8.69306 10.7417 7.46363 12.7204C6.23419 14.699 5.44245 16.9178 5.14159 19.2278L5.13048 19.2264Z" fill="white"/>
<path d="M42.6751 21.3376C42.6751 21.857 42.6556 22.3779 42.6209 22.889C42.589 23.3265 42.5431 23.7682 42.482 24.2029C41.8087 29.184 39.3994 33.7677 35.6783 37.1468C31.9572 40.5259 27.1631 42.4836 22.1404 42.6751C21.8737 42.6848 21.5959 42.6918 21.3154 42.6918C21.0348 42.6918 20.7598 42.6918 20.489 42.6751C18.3511 42.5965 16.2374 42.1952 14.2195 41.4848L13.8681 41.357C13.7584 41.3235 13.6512 41.2822 13.5473 41.2334C13.115 41.029 12.7496 40.7063 12.4932 40.3027C12.2368 39.899 12.1 39.431 12.0987 38.9529C12.0968 38.6692 12.1438 38.3873 12.2376 38.1195C12.2368 37.9503 12.2964 37.7863 12.4056 37.657L13.6223 36.2306L13.6459 36.2015C14.1362 36.1904 18.6279 36.6182 18.9417 36.6515L18.8667 36.7376H18.8598L18.5501 37.1015C18.5294 37.1256 18.5144 37.1541 18.5063 37.1848C18.4982 37.2155 18.4972 37.2477 18.5034 37.2788C18.5095 37.31 18.5227 37.3393 18.5418 37.3647C18.561 37.39 18.5857 37.4107 18.614 37.4251C18.6329 37.436 18.6536 37.4436 18.6751 37.4473C21.0538 37.8311 23.4878 37.6889 25.8056 37.0306C28.9042 36.1491 31.6719 34.3691 33.7593 31.9153C35.8467 29.4616 37.16 26.4443 37.5334 23.2445C37.6079 22.6084 37.6454 21.9684 37.6459 21.3279C37.6495 19.6198 37.3828 17.922 36.8556 16.2973C36.844 16.2603 36.8224 16.2272 36.7931 16.2017C36.7638 16.1762 36.728 16.1594 36.6897 16.1531C36.6514 16.1467 36.6121 16.1512 36.5762 16.1658C36.5403 16.1805 36.5091 16.2049 36.4862 16.2362L36.4695 16.2598C36.365 16.4047 36.2274 16.5226 36.0683 16.6037C35.9091 16.6849 35.7329 16.727 35.5542 16.7265C35.3986 16.7262 35.2446 16.6945 35.1014 16.6334C34.9583 16.5724 34.8288 16.4831 34.7209 16.3709C34.6158 16.2601 34.5342 16.1292 34.4812 15.9859C34.4282 15.8427 34.4049 15.6901 34.4126 15.5376L34.6584 10.5918C34.6777 10.1958 34.8485 9.82234 35.1355 9.5488C35.4224 9.27526 35.8036 9.12256 36.2001 9.12231C36.3123 9.12228 36.4241 9.13486 36.5334 9.15982L41.6834 10.2931C41.8962 10.34 42.0882 10.4541 42.2311 10.6186C42.3741 10.783 42.4603 10.989 42.4771 11.2063C42.4939 11.4235 42.4404 11.6403 42.3245 11.8248C42.2086 12.0093 42.0364 12.1516 41.8334 12.2306L41.0265 12.5459C41.0005 12.5564 40.977 12.572 40.9571 12.5917C40.9373 12.6114 40.9216 12.6349 40.911 12.6608C40.9004 12.6867 40.8951 12.7144 40.8953 12.7424C40.8956 12.7704 40.9015 12.798 40.9126 12.8237C41.8706 15.028 42.4468 17.3791 42.6167 19.7765C42.6556 20.2973 42.6751 20.8209 42.6751 21.3376Z" fill="white"/>
<path d="M31.2111 6.85271C31.2111 6.85271 31.1916 6.85966 31.1527 6.85966C30.5597 6.8666 25.5819 6.44299 25.2111 6.41104H25.1888C25.1888 6.41104 25.2416 6.36799 25.3138 6.30549C25.4347 6.2078 25.5434 6.09588 25.6375 5.97216C25.663 5.93821 25.6801 5.89871 25.6875 5.85688C25.7055 5.67077 25.5763 5.65271 25.5763 5.65271L25.5875 5.5791C25.75 5.61105 30.768 6.60271 31.1777 6.8291C31.2013 6.83744 31.2111 6.84577 31.2111 6.85271Z" fill="#F0F1F1"/>
<path d="M18.9639 36.6515C18.9639 36.6515 18.925 36.6848 18.8708 36.7362H18.8639C18.7446 36.843 18.6405 36.9654 18.5541 37.1001C18.5367 37.13 18.5254 37.163 18.5208 37.1973C18.5041 37.3821 18.6208 37.4001 18.6208 37.4001V37.4237L18.6139 37.4737C18.6139 37.4737 13.968 36.4446 13.6305 36.2237C13.6166 36.2154 13.6111 36.2084 13.6111 36.2029C13.6111 36.1973 13.625 36.1959 13.6541 36.1945C14.1444 36.1834 18.6361 36.6112 18.95 36.6446L18.9639 36.6515Z" fill="#F0F1F1"/>
</g>
<defs>
<clipPath id="clip0_2069_1496">
<rect width="228" height="43" fill="white"/>
</clipPath>
</defs>
</svg>
