<svg width="37" height="37" viewBox="0 0 37 37" fill="none" xmlns="http://www.w3.org/2000/svg">
<path opacity="0.7" d="M11.0646 16.9317C11.7498 14.3748 14.3781 11.7466 16.935 11.0614L32.8758 6.78939C35.4327 6.10417 36.95 7.62146 36.2647 10.1784L31.9928 26.1192C31.3075 28.6761 28.6793 31.3043 26.1224 31.9895L10.1816 36.2615C7.62469 36.9467 6.1074 35.4294 6.79262 32.8725L11.0646 16.9317Z" fill="#442C86"/>
<path d="M4.67409 10.541C5.35931 7.98415 7.98757 5.3559 10.5445 4.67068L26.4853 0.398701C29.0422 -0.286519 30.5595 1.23077 29.8742 3.78766L25.6023 19.7285C24.9171 22.2854 22.2888 24.9136 19.7319 25.5988L3.79108 29.8708C1.23419 30.556 -0.283099 29.0387 0.402121 26.4819L4.67409 10.541Z" fill="#442C86"/>
</svg>
