<svg width="37" height="37" viewBox="0 0 37 37" fill="none" xmlns="http://www.w3.org/2000/svg">
<path d="M13.0951 26.1904C20.3274 26.1904 26.1904 20.3274 26.1904 13.0951C26.1904 12.2755 26.115 11.4734 25.971 10.6955C25.193 10.5514 24.391 10.4761 23.5713 10.4761C16.339 10.4761 10.4761 16.339 10.4761 23.5713C10.4761 24.391 10.5514 25.193 10.6955 25.971C11.4734 26.1151 12.2755 26.1904 13.0951 26.1904Z" fill="#442C86"/>
<path opacity="0.8" fill-rule="evenodd" clip-rule="evenodd" d="M10.6956 25.9711C4.60931 24.844 0 19.5079 0 13.0952C0 5.86294 5.86294 0 13.0952 0C19.5079 0 24.844 4.60931 25.9711 10.6956C25.1932 10.5515 24.3911 10.4762 23.5714 10.4762C16.3391 10.4762 10.4762 16.3391 10.4762 23.5714C10.4762 24.3911 10.5515 25.1932 10.6956 25.9711Z" fill="#442C86"/>
<path opacity="0.6" fill-rule="evenodd" clip-rule="evenodd" d="M13.0952 26.1903C20.3275 26.1903 26.1905 20.3274 26.1905 13.0951C26.1905 12.2754 26.1152 11.4734 25.9711 10.6954C32.0574 11.8226 36.6667 17.1587 36.6667 23.5713C36.6667 30.8036 30.8037 36.6665 23.5714 36.6665C17.1588 36.6665 11.8227 32.0572 10.6956 25.971C11.4735 26.115 12.2756 26.1903 13.0952 26.1903Z" fill="#442C86"/>
</svg>
