<svg width="33" height="37" viewBox="0 0 33 37" fill="none" xmlns="http://www.w3.org/2000/svg">
<path d="M28.234 18.3333C25.272 21.6427 20.9675 23.7254 16.1766 23.7254C11.3856 23.7254 7.08116 21.6427 4.11914 18.3333C7.08116 15.0238 11.3856 12.9411 16.1766 12.9411C20.9675 12.9411 25.272 15.0238 28.234 18.3333Z" fill="#442C86"/>
<path opacity="0.6" fill-rule="evenodd" clip-rule="evenodd" d="M0 29.1176C0 20.1836 7.24245 12.9411 16.1765 12.9411C11.3855 12.9411 7.08108 15.0238 4.11906 18.3333C7.08108 21.6427 11.3856 23.7254 16.1765 23.7254C20.9674 23.7254 25.2719 21.6427 28.2339 18.3333C30.7954 21.1952 32.3529 24.9745 32.3529 29.1176V35.2287C32.3529 36.0228 31.7091 36.6666 30.915 36.6666H1.43791C0.643773 36.6666 0 36.0228 0 35.2287V29.1176ZM28.2339 18.3333C28.2339 18.3333 28.2339 18.3333 28.2339 18.3333V18.3333Z" fill="#442C86"/>
<path opacity="0.8" fill-rule="evenodd" clip-rule="evenodd" d="M10.1089 22.549C7.79908 21.6138 5.75446 20.1605 4.11906 18.3333C7.08108 15.0239 11.3856 12.9412 16.1765 12.9412C20.9674 12.9412 25.2719 15.0239 28.2339 18.3333C28.2339 18.3333 28.2339 18.3333 28.2339 18.3333C30.7954 15.4714 32.3529 11.6921 32.3529 7.54902V1.43791C32.3529 0.643777 31.7091 2.70268e-06 30.915 2.70268e-06L1.43791 0C0.643775 -6.94251e-08 6.03676e-07 0.643774 5.3425e-07 1.43791L0 7.54902C-1.07453e-06 14.3373 4.18129 20.149 10.1089 22.549Z" fill="#442C86"/>
</svg>
