<svg width="54" height="54" viewBox="0 0 54 54" fill="none" xmlns="http://www.w3.org/2000/svg">
<path d="M25.4257 0.888066C25.7445 -0.295952 27.4244 -0.295954 27.7432 0.888063L32.7688 19.5534C32.88 19.9664 33.2026 20.2889 33.6156 20.4001L52.2809 25.4257C53.4649 25.7445 53.4649 27.4244 52.2809 27.7432L33.6156 32.7688C33.2026 32.88 32.88 33.2026 32.7688 33.6156L27.7432 52.2809C27.4244 53.4649 25.7445 53.4649 25.4257 52.2809L20.4001 33.6156C20.2889 33.2026 19.9664 32.88 19.5534 32.7688L0.888066 27.7432C-0.295952 27.4244 -0.295954 25.7445 0.888063 25.4257L19.5534 20.4001C19.9664 20.2889 20.2889 19.9664 20.4001 19.5534L25.4257 0.888066Z" fill="#623FC2"/>
</svg>
