<svg width="1440" height="702" viewBox="0 0 1440 702" fill="none" xmlns="http://www.w3.org/2000/svg">
<rect width="1440" height="700" transform="translate(0 1.52881)" fill="#5838AF"/>
<path opacity="0.0526316" d="M415.121 566.642C430.362 586.918 479.074 620.849 551.993 594.358C643.141 561.244 678.394 473.467 759.745 427.954C819.789 394.362 981.128 343.938 1073.9 399.657" stroke="#7251D6" stroke-width="3"/>
<path opacity="0.105263" d="M400.088 524.133C413.126 545.892 458.024 584.728 533.313 566.004C627.423 542.599 671.658 458.988 757.321 422.228C820.547 395.096 986.273 361.813 1072.71 426.924" stroke="#7251D6" stroke-width="3"/>
<path opacity="0.157895" d="M388.731 481.052C399.423 504.055 440.016 547.372 516.849 536.62C612.891 523.18 665.623 444.651 754.659 417.046C820.375 396.672 988.672 380.894 1067.83 454.684" stroke="#7251D6" stroke-width="3"/>
<path opacity="0.210526" d="M381.09 437.784C389.319 461.778 425.161 509.101 502.698 506.439C599.618 503.112 660.269 430.525 751.704 412.379C819.189 398.985 988.214 400.886 1059.23 482.546" stroke="#7251D6" stroke-width="3"/>
<path opacity="0.263158" d="M377.163 394.72C382.839 419.442 413.539 470.252 490.928 475.71C587.666 482.532 655.572 416.683 748.402 408.193C816.918 401.927 984.818 421.485 1046.91 510.121" stroke="#7251D6" stroke-width="3"/>
<path opacity="0.315789" d="M376.911 352.246C379.971 377.427 405.192 431.167 481.587 444.685C577.081 461.581 651.499 403.191 744.708 404.451C813.503 405.381 978.439 442.382 1030.92 537.023" stroke="#7251D6" stroke-width="3"/>
<path opacity="0.368421" d="M380.249 310.744C380.661 336.106 400.125 392.188 474.689 413.617C567.894 440.403 648.007 390.111 740.574 401.108C808.896 409.224 969.06 463.263 1011.36 562.871" stroke="#7251D6" stroke-width="3"/>
<path opacity="0.421053" d="M387.057 270.582C384.816 295.849 398.311 353.659 470.227 382.764C560.121 419.146 645.053 377.504 735.963 398.116C803.062 413.329 956.7 483.814 988.361 587.298" stroke="#7251D6" stroke-width="3"/>
<path opacity="0.473684" d="M397.177 232.118C392.307 257.012 399.686 315.916 468.165 352.379C553.764 397.958 642.583 365.421 730.841 395.423C795.982 417.566 941.411 503.725 962.081 609.952" stroke="#7251D6" stroke-width="3"/>
<path opacity="0.526316" d="M410.413 195.686C402.967 219.935 404.148 279.287 468.441 322.709C548.807 376.986 640.54 353.912 725.179 392.974C787.648 421.806 923.275 522.693 932.728 630.499" stroke="#7251D6" stroke-width="3"/>
<path opacity="0.578947" d="M426.534 161.603C416.594 184.941 411.565 244.091 470.967 293.995C545.219 356.375 638.862 343.017 718.953 390.713C778.067 425.916 902.405 540.428 900.537 648.631" stroke="#7251D6" stroke-width="3"/>
<path opacity="0.631579" d="M445.28 130.158C432.956 152.328 421.771 210.629 475.631 266.469C542.956 336.269 637.482 332.771 712.149 388.578C767.259 429.767 878.946 556.649 865.779 664.064" stroke="#7251D6" stroke-width="3"/>
<path opacity="0.684211" d="M466.361 101.609C451.786 122.37 434.569 179.182 482.297 240.346C541.957 316.801 636.331 323.203 704.756 386.509C755.258 433.233 853.071 571.094 828.747 676.545" stroke="#7251D6" stroke-width="3"/>
<path opacity="0.736842" d="M489.46 76.1845C472.796 95.3081 449.734 150.01 490.807 215.827C542.149 298.099 635.336 314.332 696.769 384.443C742.111 436.19 824.977 583.52 789.765 685.85" stroke="#7251D6" stroke-width="3"/>
<path opacity="0.789474" d="M514.241 54.0795C495.668 71.3564 467.015 123.348 500.984 193.098C543.444 280.286 634.424 306.17 688.192 382.319C727.877 438.522 794.889 593.707 749.172 691.796" stroke="#7251D6" stroke-width="3"/>
<path opacity="0.842105" d="M540.348 35.4499C520.071 50.6907 486.14 99.4022 512.631 172.321C545.746 263.47 633.522 298.722 679.035 380.074C712.628 440.117 763.052 601.457 707.333 694.23" stroke="#7251D6" stroke-width="3"/>
<path opacity="0.894737" d="M567.408 20.4173C545.649 33.4552 506.812 78.3531 525.536 153.642C548.942 247.752 632.552 291.987 669.313 377.65C696.445 440.876 729.728 606.603 664.617 693.043" stroke="#7251D6" stroke-width="3"/>
<path opacity="0.947368" d="M595.042 9.06013C572.04 19.7522 528.723 60.3447 539.475 137.178C552.914 233.22 631.443 285.952 659.048 374.988C679.423 440.704 695.2 609.001 621.41 688.162" stroke="#7251D6" stroke-width="3"/>
<path d="M622.863 1.41895C598.869 9.64804 551.546 45.4903 554.207 123.027C557.534 219.947 630.121 280.598 648.268 372.033C661.662 439.518 659.761 608.543 578.101 679.557" stroke="#7251D6" stroke-width="3"/>
<path d="M1297.84 589.95C1298.16 588.766 1299.84 588.766 1300.16 589.95L1305.18 608.615C1305.3 609.028 1305.62 609.351 1306.03 609.462L1324.7 614.488C1325.88 614.807 1325.88 616.486 1324.7 616.805L1306.03 621.831C1305.62 621.942 1305.3 622.265 1305.18 622.678L1300.16 641.343C1299.84 642.527 1298.16 642.527 1297.84 641.343L1292.82 622.678C1292.7 622.265 1292.38 621.942 1291.97 621.831L1273.3 616.805C1272.12 616.486 1272.12 614.807 1273.3 614.488L1291.97 609.462C1292.38 609.351 1292.7 609.028 1292.82 608.615L1297.84 589.95Z" fill="#623FC2"/>
<path d="M124.841 111.95C125.16 110.766 126.84 110.766 127.159 111.95L132.184 130.615C132.296 131.028 132.618 131.351 133.031 131.462L151.696 136.488C152.88 136.807 152.88 138.486 151.696 138.805L133.031 143.831C132.618 143.942 132.296 144.265 132.184 144.678L127.159 163.343C126.84 164.527 125.16 164.527 124.841 163.343L119.816 144.678C119.704 144.265 119.382 143.942 118.969 143.831L100.304 138.805C99.1196 138.486 99.1196 136.807 100.304 136.488L118.969 131.462C119.382 131.351 119.704 131.028 119.816 130.615L124.841 111.95Z" fill="#623FC2"/>
</svg>
