<svg width="1252" height="223" viewBox="0 0 1252 223" fill="none" xmlns="http://www.w3.org/2000/svg">
<g clip-path="url(#clip0_2082_2098)">
<path d="M337.595 106.602C333.559 104.663 329.378 103.002 325.088 101.632C320.986 100.296 316.795 99.2208 312.542 98.4128C309.148 97.8669 305.877 96.778 302.871 95.1931C300.329 93.7525 299.058 91.9614 299.058 89.8198C299.049 88.6863 299.344 87.5692 299.915 86.572C300.485 85.5748 301.313 84.7297 302.322 84.1151C304.503 82.641 307.396 81.9015 311.001 81.8967C315.069 81.8967 318.373 82.9267 320.916 84.9867C323.557 87.1817 325.314 90.1717 325.888 93.45L350.347 88.7466C349.818 84.931 348.467 81.2583 346.376 77.9555C344.285 74.6527 341.499 71.7898 338.19 69.5438C331.316 64.7083 322.525 62.2905 311.817 62.2905C301.191 62.2905 292.232 65.0444 284.941 70.5522C277.649 76.06 273.999 82.9315 273.989 91.1667C273.876 95.44 274.852 99.6764 276.833 103.52C278.546 106.81 281.125 109.63 284.323 111.709C287.498 113.729 290.909 115.397 294.489 116.679C298.106 118.001 301.811 119.101 305.578 119.971C309.275 120.821 312.664 121.649 315.745 122.456C318.422 123.086 320.954 124.177 323.211 125.676C324.079 126.221 324.792 126.96 325.288 127.826C325.784 128.693 326.048 129.661 326.056 130.646C326.056 133.046 324.8 135.106 322.289 136.826C319.777 138.545 316.528 139.395 312.542 139.375C303.446 139.375 298.041 135.534 296.327 127.851L271.899 132.533C273.226 140.509 277.469 146.91 284.628 151.735C291.787 156.561 300.865 158.979 311.863 158.989C322.952 158.989 332.264 156.213 339.799 150.662C347.335 145.111 351.102 138.218 351.102 129.983C351.102 124.345 349.831 119.51 347.289 115.476C345.017 111.708 341.655 108.629 337.595 106.602Z" fill="white"/>
<path d="M409.265 86.4337C403.433 86.3448 397.786 88.3621 393.477 92.0735C389.023 95.8334 385.802 100.892 383.814 107.25V87.8023H361.056V184.5H383.814V138.165C385.797 144.522 389.018 149.581 393.477 153.341C397.786 157.052 403.433 159.07 409.265 158.981C418.081 158.981 425.38 155.511 431.161 148.573C436.942 141.634 439.832 133.017 439.832 122.722C439.832 112.426 436.942 103.809 431.161 96.8706C425.38 89.9319 418.081 86.4529 409.265 86.4337ZM411.69 134.606C410.345 136.11 408.667 137.316 406.775 138.14C404.882 138.963 402.822 139.385 400.738 139.375C398.475 139.447 396.222 139.068 394.126 138.261C392.03 137.454 390.137 136.238 388.573 134.693C385.39 131.557 383.804 127.574 383.814 122.743C383.824 117.913 385.411 113.929 388.573 110.794C390.136 109.247 392.026 108.028 394.121 107.218C396.215 106.407 398.468 106.023 400.73 106.09C402.814 106.076 404.875 106.494 406.768 107.314C408.662 108.134 410.342 109.337 411.69 110.837C414.741 114.016 416.266 117.977 416.266 122.722C416.266 127.466 414.741 131.427 411.69 134.606Z" fill="white"/>
<path d="M490.031 86.4355C487.436 86.5988 484.901 87.2373 482.564 88.3154C480.241 89.391 478.059 91.3838 476.021 94.2938C473.77 97.6665 472.114 101.361 471.117 105.235V87.8112H448.366V157.643H471.117V118.848C471.117 113.206 473.659 109.29 478.743 107.1C483.828 104.911 490.155 105.201 497.726 107.972V87.804C495.33 86.7267 492.678 86.2551 490.031 86.4355Z" fill="white"/>
<path d="M519.035 56.2472C515.887 56.2286 512.83 57.2425 510.386 59.1159C507.942 60.9893 506.262 63.6059 505.633 66.519C505.004 69.4321 505.466 72.4609 506.939 75.0883C508.412 77.7158 510.805 79.7788 513.709 80.9252C516.614 82.0716 519.849 82.2303 522.864 81.3741C525.878 80.5179 528.485 78.7 530.238 76.2308C531.991 73.7615 532.782 70.7941 532.476 67.8352C532.171 64.8763 530.787 62.1095 528.561 60.0071C527.33 58.7977 525.85 57.8399 524.211 57.1931C522.573 56.5463 520.811 56.2244 519.035 56.2472Z" fill="white"/>
<path d="M530.407 87.811H507.657V157.643H530.407V87.811Z" fill="white"/>
<path d="M586.577 86.4344C580.986 86.3413 575.542 88.1283 571.217 91.4764C566.865 94.8377 563.689 99.4259 561.691 105.241V87.8101H538.941V157.642H561.691V118.847C561.615 117.097 561.945 115.352 562.657 113.734C563.37 112.117 564.449 110.666 565.817 109.483C568.563 107.107 572.165 105.918 576.624 105.918C578.407 105.866 580.183 106.156 581.845 106.768C583.507 107.381 585.02 108.305 586.295 109.483C588.837 111.856 590.108 114.977 590.108 118.847V157.663H612.859V114.799C612.859 106.386 610.466 99.5604 605.682 94.3215C600.897 89.0826 594.529 86.4536 586.577 86.4344Z" fill="white"/>
<path d="M654.807 74.3624V58.0264L632.041 64.4369" fill="#F54F29"/>
<path d="M632.101 71.0425V87.609H617.885V106.416H632.101V129.241C632.101 148.041 642.525 157.441 663.371 157.441H672.615V138.641H663.371C657.681 138.641 654.837 135.957 654.837 130.588V106.401H672.615V87.5946H654.837L654.776 80.6511" fill="white"/>
<path d="M705.31 63.6382H681.134V157.642H749.393V137.496H705.31V63.6382Z" fill="white"/>
<path d="M814.44 93.6362C808.425 88.8343 800.486 86.4333 790.622 86.4333C780.961 86.4333 773.164 88.5366 767.231 92.743C761.297 96.9495 757.947 102.064 757.179 108.085L779.784 112.652C780.072 110.224 781.286 107.978 783.201 106.335C785.093 104.726 787.65 103.922 790.874 103.922C793.351 103.829 795.802 104.436 797.913 105.665C799.769 106.832 800.694 108.311 800.689 110.102C800.689 112.873 798.699 114.392 794.717 114.661L784.635 115.468C764.922 117.264 755.064 124.964 755.059 138.568C755.059 144.661 757.192 149.585 761.457 153.341C765.501 157.018 770.915 159.044 776.528 158.98C788.949 158.98 797.008 153.072 800.704 141.254V157.641H823.455V114.798C823.465 105.492 820.46 98.4381 814.44 93.6362ZM800.712 129.153C800.712 132.467 799.123 135.465 795.945 138.15C793.043 140.735 789.204 142.175 785.215 142.176C782.845 142.176 781.02 141.684 779.739 140.7C779.107 140.217 778.604 139.601 778.271 138.902C777.937 138.203 777.781 137.439 777.817 136.673C777.817 133.456 780.044 131.576 784.498 131.033L795.45 129.823C797.252 129.723 799.027 129.361 800.712 128.75V129.153Z" fill="white"/>
<path d="M879.497 86.435C873.666 86.346 868.019 88.3633 863.709 92.0748C859.255 95.8347 856.032 100.893 854.039 107.251V58.2646H831.288V157.664H854.039V138.216C856.037 144.574 859.261 149.633 863.709 153.393C868.019 157.104 873.666 159.121 879.497 159.032C888.313 159.032 895.612 155.563 901.393 148.624C907.174 141.686 910.065 133.069 910.065 122.773C910.065 112.478 907.174 103.861 901.393 96.9223C895.612 89.9836 888.313 86.4878 879.497 86.435ZM881.914 134.579C880.569 136.082 878.891 137.287 876.999 138.111C875.107 138.935 873.046 139.357 870.962 139.347C868.7 139.416 866.447 139.033 864.352 138.222C862.257 137.412 860.367 136.192 858.805 134.644C855.623 131.508 854.034 127.525 854.039 122.694C854.044 117.863 855.633 113.88 858.805 110.745C860.368 109.197 862.258 107.979 864.353 107.168C866.448 106.358 868.7 105.974 870.962 106.041C873.046 106.031 875.107 106.453 876.999 107.277C878.891 108.101 880.569 109.307 881.914 110.809C884.965 113.988 886.49 117.95 886.49 122.694C886.49 127.438 884.965 131.41 881.914 134.608V134.579Z" fill="white"/>
<path d="M954.574 63.6382H921.154V157.642H954.574C968.881 157.642 980.83 153.143 990.419 144.144C1000.01 135.146 1004.8 123.976 1004.78 110.637C1004.78 97.2971 999.993 86.1278 990.419 77.1291C980.845 68.1303 968.897 63.6334 954.574 63.6382ZM984.577 139.174C976.513 146.829 966.464 150.656 954.429 150.656H929.116V70.5889H954.429C966.464 70.5889 976.513 74.416 984.577 82.0703C992.641 89.7245 996.668 99.2466 996.658 110.637C996.658 122.012 992.631 131.525 984.577 139.174Z" fill="white"/>
<path d="M1013.73 64.4362C1013.01 64.4275 1012.31 64.5537 1011.65 64.8072C1010.99 65.0608 1010.39 65.4366 1009.88 65.9126C1009.38 66.3885 1008.98 66.955 1008.71 67.5785C1008.44 68.202 1008.31 68.87 1008.32 69.543C1008.32 70.382 1008.54 71.208 1008.96 71.948C1009.38 72.6879 1009.98 73.319 1010.72 73.7855C1011.46 74.2519 1012.31 74.5394 1013.19 74.6224C1014.08 74.7055 1014.97 74.5815 1015.79 74.2615C1016.61 73.9416 1017.33 73.4354 1017.9 72.7879C1018.46 72.1404 1018.85 71.3713 1019.03 70.5489C1019.2 69.7264 1019.16 68.8757 1018.91 68.0722C1018.65 67.2686 1018.19 66.5368 1017.56 65.9416C1017.07 65.4573 1016.47 65.074 1015.81 64.8151C1015.15 64.5563 1014.44 64.4273 1013.73 64.4362Z" fill="white"/>
<path d="M1017.7 90.0847H1009.88V157.633H1017.7V90.0847Z" fill="white"/>
<path d="M1092.21 109.966C1089.85 103.767 1085.57 98.3844 1079.92 94.5227C1074.23 90.6612 1067.37 88.64 1060.36 88.7605C1050.41 88.7605 1042.11 92.0954 1035.48 98.7652C1028.84 105.435 1025.52 113.74 1025.52 123.68C1025.52 133.615 1028.84 141.939 1035.48 148.652C1042.11 155.365 1050.41 158.726 1060.36 158.736C1067.37 158.856 1074.23 156.835 1079.92 152.974C1085.57 149.112 1089.85 143.73 1092.21 137.531V150.827C1092.21 158.794 1089.37 165.485 1083.69 170.902C1078 176.318 1070.98 179.026 1062.64 179.026C1056.91 179.119 1051.28 177.575 1046.5 174.597C1041.82 171.657 1038.14 167.505 1035.9 162.64L1028.65 165.463C1031.49 171.53 1036.13 176.685 1042.02 180.301C1048.14 184.057 1055.31 185.999 1062.61 185.876C1073.23 185.876 1082.13 182.515 1089.31 175.792C1096.49 169.07 1100.07 160.743 1100.05 150.813V90.0858H1092.22L1092.21 109.966ZM1083.69 143.74C1078 149.07 1070.84 151.732 1062.21 151.728C1058.39 151.793 1054.6 151.112 1051.08 149.726C1047.56 148.34 1044.38 146.28 1041.74 143.675C1036.15 138.302 1033.35 131.632 1033.35 123.665C1033.35 115.786 1036.15 109.159 1041.74 103.786C1044.38 101.175 1047.57 99.1113 1051.1 97.7251C1054.63 96.3388 1058.42 95.6604 1062.25 95.7328C1070.89 95.7328 1078.05 98.3954 1083.72 103.721C1089.4 109.046 1092.24 115.694 1092.25 123.665C1092.23 131.718 1089.37 138.41 1083.69 143.74Z" fill="white"/>
<path d="M1114.54 64.4364C1113.3 64.4448 1112.11 64.8563 1111.16 65.601C1110.21 66.3456 1109.57 67.3776 1109.33 68.5213C1109.1 69.6651 1109.29 70.8501 1109.88 71.875C1110.46 72.8999 1111.41 73.7015 1112.55 74.1434C1113.69 74.5853 1114.96 74.6404 1116.14 74.2992C1117.32 73.958 1118.34 73.2416 1119.02 72.2719C1119.7 71.3021 1120.01 70.1387 1119.89 68.9795C1119.77 67.8203 1119.22 66.7367 1118.35 65.913C1117.85 65.4359 1117.26 65.059 1116.6 64.8051C1115.95 64.5513 1115.24 64.4259 1114.54 64.4364Z" fill="white"/>
<path d="M1118.52 90.0847H1110.7V157.633H1118.52V90.0847Z" fill="white"/>
<path d="M1147.96 62.2905L1140.13 64.5738V90.0863H1123.5V96.9362H1140.13V135.349C1140.13 142.955 1142.07 148.571 1145.96 152.196C1149.84 155.822 1155.86 157.637 1164.02 157.642H1170.71V150.792H1164.02C1158.24 150.792 1154.11 149.627 1151.65 147.298C1149.18 144.97 1147.95 141.03 1147.96 135.479V96.9362H1170.71V90.0863H1147.96V62.2905Z" fill="white"/>
<path d="M1226.94 94.5866C1221.97 90.6923 1215.59 88.7451 1207.82 88.7451C1200.42 88.7451 1193.93 90.4906 1188.33 93.9816C1182.74 97.4726 1179.04 102.62 1177.24 109.424L1184.78 111.585C1186.2 105.938 1188.98 101.842 1193.1 99.2973C1197.45 96.6802 1202.52 95.3461 1207.67 95.4654C1213.36 95.4654 1217.94 96.8099 1221.4 99.499C1224.86 102.188 1226.6 105.902 1226.6 110.642C1226.6 115.746 1223.32 118.656 1216.78 119.372L1199.29 121.252C1191.99 122.058 1186.14 124.073 1181.75 127.295C1177.36 130.517 1175.15 135.035 1175.12 140.85C1175.12 146.401 1177.19 150.812 1181.32 154.082C1185.44 157.352 1190.82 158.985 1197.45 158.98C1211.76 158.98 1221.48 152.176 1226.6 138.567V157.64H1234.42V110.771C1234.41 103.881 1231.92 98.4858 1226.94 94.5866ZM1226.59 126.999C1226.63 130.326 1225.94 133.625 1224.59 136.695C1223.23 139.765 1221.23 142.541 1218.69 144.855C1213.43 149.878 1206.77 152.387 1198.71 152.382C1194.07 152.382 1190.27 151.307 1187.34 149.155C1185.93 148.164 1184.79 146.865 1184.02 145.369C1183.25 143.873 1182.88 142.224 1182.93 140.562C1182.93 136.721 1184.42 133.744 1187.41 131.631C1190.39 129.518 1194.35 128.197 1199.28 127.669L1215.64 125.789C1221.7 125.252 1225.35 123.148 1226.59 119.48V126.999Z" fill="white"/>
<path d="M1252.18 58.2646H1244.36V157.642H1252.18V58.2646Z" fill="white"/>
<path d="M164.492 118.488C164.499 120.322 164.095 122.137 163.306 123.812C162.517 125.488 161.362 126.988 159.916 128.212L159.863 128.255C159.773 128.389 159.677 128.519 159.573 128.644L104.058 190.07C102.335 189.911 77.67 187.679 74.9777 187.736L130.493 126.31C130.623 126.167 130.711 125.994 130.748 125.808C130.786 125.622 130.772 125.431 130.707 125.252C130.643 125.073 130.53 124.913 130.38 124.788C130.23 124.663 130.048 124.577 129.852 124.538L86.4254 115.665C86.1766 115.613 85.9339 115.538 85.7009 115.441C85.5331 115.441 85.3729 115.441 85.2052 115.441C84.3589 115.344 83.5241 115.172 82.7112 114.93H82.6044C81.7642 114.672 80.95 114.344 80.1715 113.95C78.388 113.026 76.8412 111.743 75.6406 110.192C74.44 108.641 73.6148 106.86 73.2233 104.975C72.8319 103.089 72.8839 101.146 73.3755 99.2814C73.8671 97.4171 74.7864 95.6775 76.0684 94.1857L76.137 94.1136C76.6127 93.5626 77.1356 93.0495 77.7005 92.5794C77.7452 92.5528 77.7885 92.5239 77.8301 92.493C77.9064 92.3922 78.0055 92.2913 78.0894 92.1977L138.462 33.3145C140.499 33.4801 167.833 35.677 171.089 35.641L109.992 95.2373C109.846 95.3753 109.742 95.5481 109.692 95.7373C109.641 95.9265 109.646 96.1251 109.705 96.312C109.765 96.4989 109.877 96.667 110.029 96.7987C110.182 96.9303 110.369 97.0205 110.572 97.0596L152.015 105.523L152.221 105.573C153.202 105.677 154.169 105.88 155.104 106.178H155.165C157.895 107.058 160.265 108.724 161.942 110.94C163.619 113.157 164.519 115.814 164.515 118.538L164.492 118.488Z" fill="white"/>
<path d="M28.1733 99.709C27.6781 103.345 27.4234 107.006 27.4106 110.672C27.3875 121.581 29.6153 132.39 33.9696 142.494C34.1526 142.941 34.3357 143.373 34.5416 143.812C34.6207 143.99 34.7483 144.145 34.9113 144.261C35.0743 144.378 35.267 144.451 35.4699 144.475C35.6727 144.498 35.8785 144.471 36.0664 144.395C36.2543 144.319 36.4176 144.197 36.5398 144.043C37.119 143.288 37.8763 142.672 38.7515 142.242C39.6223 141.821 40.5875 141.603 41.5658 141.608C42.4209 141.607 43.2674 141.77 44.0539 142.087C44.8405 142.404 45.5508 142.868 46.1418 143.452C46.7223 144.024 47.1716 144.703 47.4616 145.447C47.7516 146.19 47.8761 146.983 47.8273 147.774L46.485 173.423C46.3774 175.475 45.4387 177.41 43.863 178.827C42.2873 180.244 40.1952 181.035 38.0194 181.036C37.4032 181.04 36.7888 180.975 36.189 180.842L7.93202 175.029C6.74879 174.799 5.67687 174.211 4.87762 173.356C4.07836 172.5 3.59503 171.422 3.5004 170.285C3.40576 169.147 3.70494 168.012 4.35288 167.049C5.00083 166.086 5.96249 165.347 7.09308 164.945L12.7445 162.856C12.9893 162.743 13.2446 162.652 13.5071 162.583C13.019 161.726 12.5385 160.854 12.0886 159.982C3.98473 144.675 -0.207644 127.786 -0.152291 110.672C-0.173113 95.4977 3.11764 80.4824 9.51462 66.5629C15.9116 52.6434 25.2775 40.1184 37.0279 29.7694C54.0199 14.7716 75.3477 4.8808 98.3033 1.35278C121.259 -2.17524 144.807 0.818696 165.957 9.95443C167.254 10.509 168.558 11.1141 169.878 11.7407C170.305 11.9221 170.723 12.1241 171.128 12.3458C172.746 13.236 174.155 14.4268 175.271 15.8462C176.387 17.2656 177.187 18.8841 177.622 20.6037C178.057 22.3234 178.118 24.1084 177.801 25.851C177.485 27.5936 176.797 29.2574 175.781 30.7418C175.567 31.0371 175.338 31.3613 175.094 31.6566C174.522 32.3488 173.878 32.9858 173.172 33.5581L171.266 35.4093L171.098 35.5749C167.841 35.611 140.507 33.4141 138.471 33.2484L139.035 32.6938L140.812 30.9651L141.056 30.7346C141.194 30.6011 141.294 30.4361 141.345 30.2557C141.396 30.0754 141.397 29.8856 141.348 29.7047C141.299 29.5237 141.202 29.3578 141.065 29.2228C140.928 29.0878 140.757 28.9883 140.568 28.9339C128.221 25.775 115.302 25.1482 102.677 27.0956C90.053 29.043 78.016 33.5195 67.3752 40.2243C56.7344 46.9292 47.7362 55.7071 40.9851 65.9684C34.234 76.2296 29.8864 87.7366 28.2343 99.7163L28.1733 99.709Z" fill="white"/>
<path d="M234.339 110.657C234.339 113.35 234.232 116.052 234.041 118.702C233.866 120.971 233.614 123.262 233.278 125.516C229.581 151.348 216.351 175.12 195.918 192.644C175.484 210.168 149.159 220.321 121.578 221.314C120.113 221.364 118.588 221.4 117.047 221.4C115.507 221.4 113.997 221.4 112.51 221.314C100.77 220.906 89.1634 218.825 78.0826 215.141L76.153 214.478C75.5504 214.304 74.9617 214.09 74.3912 213.837C72.0176 212.777 70.0107 211.103 68.6028 209.01C67.195 206.917 66.4439 204.49 66.4366 202.01C66.4261 200.539 66.6841 199.077 67.1993 197.689C67.1948 196.811 67.522 195.96 68.1221 195.29L74.8031 187.893L74.9327 187.741C77.625 187.684 102.29 189.902 104.013 190.075L103.602 190.522H103.563L101.863 192.409C101.749 192.534 101.667 192.682 101.622 192.841C101.578 193 101.572 193.167 101.606 193.329C101.64 193.49 101.712 193.642 101.817 193.774C101.923 193.905 102.058 194.012 102.213 194.087C102.317 194.144 102.431 194.183 102.549 194.202C115.611 196.193 128.977 195.455 141.705 192.042C158.719 187.47 173.918 178.238 185.38 165.513C196.842 152.788 204.054 137.14 206.104 120.546C206.513 117.247 206.72 113.928 206.722 110.606C206.742 101.748 205.277 92.9431 202.383 84.5175C202.319 84.3254 202.2 84.1538 202.039 84.0217C201.878 83.8896 201.682 83.8023 201.472 83.7694C201.261 83.7366 201.045 83.7595 200.848 83.8356C200.651 83.9117 200.48 84.0381 200.354 84.2006L200.262 84.323C199.688 85.0744 198.933 85.6857 198.059 86.1066C197.185 86.5275 196.217 86.7457 195.236 86.7432C194.382 86.7416 193.536 86.5775 192.75 86.2607C191.964 85.9439 191.253 85.4809 190.66 84.8993C190.083 84.3247 189.635 83.6454 189.344 82.9025C189.053 82.1596 188.925 81.3686 188.967 80.5775L190.317 54.9282C190.423 52.8746 191.361 50.938 192.937 49.5194C194.513 48.1008 196.606 47.3089 198.783 47.3076C199.399 47.3074 200.013 47.3727 200.613 47.5021L228.893 53.3796C230.061 53.6228 231.116 54.2145 231.901 55.0673C232.686 55.92 233.159 56.9886 233.251 58.115C233.344 59.2415 233.05 60.3662 232.413 61.3228C231.777 62.2795 230.831 63.0174 229.717 63.4276L225.286 65.0626C225.143 65.117 225.014 65.1977 224.905 65.3C224.796 65.4023 224.71 65.5242 224.651 65.6584C224.593 65.7927 224.564 65.9366 224.565 66.0817C224.567 66.2267 224.599 66.37 224.66 66.5032C229.921 77.9346 233.085 90.1275 234.018 102.561C234.232 105.262 234.339 107.977 234.339 110.657Z" fill="white"/>
<path d="M171.388 35.5383C171.388 35.5383 171.281 35.5744 171.067 35.5744C167.811 35.6104 140.477 33.4135 138.44 33.2478H138.318C138.318 33.2478 138.608 33.0245 139.005 32.7004C139.669 32.1938 140.265 31.6134 140.782 30.9717C140.922 30.7957 141.016 30.5908 141.056 30.3739C141.155 29.4087 140.446 29.3151 140.446 29.3151L140.507 28.9333C141.4 29.099 168.955 34.2418 171.205 35.4159C171.334 35.4591 171.388 35.5023 171.388 35.5383Z" fill="#F0F1F1"/>
<path d="M104.135 190.076C104.135 190.076 103.921 190.249 103.624 190.516H103.586C102.931 191.069 102.359 191.704 101.885 192.403C101.789 192.558 101.727 192.729 101.702 192.907C101.61 193.865 102.251 193.959 102.251 193.959V194.081L102.213 194.34C102.213 194.34 76.7015 189.003 74.8482 187.858C74.7719 187.814 74.7415 187.778 74.7415 187.75C74.7415 187.721 74.8177 187.714 74.9779 187.706C77.6701 187.649 102.335 189.867 104.059 190.04L104.135 190.076Z" fill="#F0F1F1"/>
</g>
<defs>
<clipPath id="clip0_2082_2098">
<rect width="1252" height="223" fill="white"/>
</clipPath>
</defs>
</svg>
