<svg width="723" height="702" viewBox="0 0 723 702" fill="none" xmlns="http://www.w3.org/2000/svg">
<path opacity="0.0526316" d="M56.1212 566.642C71.3621 586.918 120.074 620.849 192.993 594.358C284.141 561.244 319.394 473.467 400.745 427.954C460.789 394.362 622.128 343.938 714.901 399.657" stroke="#7251D6" stroke-width="3"/>
<path opacity="0.105263" d="M41.0882 524.133C54.1261 545.892 99.024 584.728 174.313 566.004C268.423 542.599 312.658 458.988 398.321 422.228C461.547 395.096 627.273 361.813 713.714 426.924" stroke="#7251D6" stroke-width="3"/>
<path opacity="0.157895" d="M29.7313 481.052C40.4233 504.055 81.0158 547.372 157.849 536.62C253.891 523.18 306.623 444.651 395.659 417.046C461.375 396.672 629.672 380.894 708.833 454.684" stroke="#7251D6" stroke-width="3"/>
<path opacity="0.210526" d="M22.0898 437.784C30.3189 461.778 66.1612 509.101 143.698 506.439C240.618 503.112 301.269 430.525 392.704 412.379C460.189 398.985 629.214 400.886 700.228 482.546" stroke="#7251D6" stroke-width="3"/>
<path opacity="0.263158" d="M18.1633 394.72C23.8392 419.442 54.5386 470.252 131.928 475.71C228.666 482.532 296.572 416.683 389.402 408.193C457.918 401.927 625.818 421.485 687.907 510.121" stroke="#7251D6" stroke-width="3"/>
<path opacity="0.315789" d="M17.9109 352.246C20.9715 377.427 46.1916 431.167 122.587 444.685C218.081 461.581 292.499 403.191 385.708 404.451C454.503 405.381 619.439 442.382 671.923 537.023" stroke="#7251D6" stroke-width="3"/>
<path opacity="0.368421" d="M21.2489 310.744C21.6607 336.106 41.1252 392.188 115.689 413.617C208.894 440.403 289.007 390.111 381.574 401.108C449.896 409.224 610.06 463.263 652.364 562.871" stroke="#7251D6" stroke-width="3"/>
<path opacity="0.421053" d="M28.0572 270.582C25.8156 295.849 39.3113 353.659 111.227 382.764C201.121 419.146 286.053 377.504 376.963 398.116C444.062 413.329 597.7 483.814 629.361 587.298" stroke="#7251D6" stroke-width="3"/>
<path opacity="0.473684" d="M38.1773 232.118C33.3069 257.012 40.6859 315.916 109.165 352.379C194.764 397.958 283.583 365.421 371.841 395.423C436.982 417.566 582.411 503.725 603.081 609.952" stroke="#7251D6" stroke-width="3"/>
<path opacity="0.526316" d="M51.4126 195.686C43.9668 219.935 45.1483 279.287 109.441 322.709C189.807 376.986 281.54 353.912 366.178 392.974C428.648 421.806 564.275 522.693 573.727 630.499" stroke="#7251D6" stroke-width="3"/>
<path opacity="0.578947" d="M67.5338 161.603C57.5941 184.941 52.565 244.091 111.967 293.995C186.219 356.375 279.862 343.017 359.953 390.713C419.067 425.916 543.405 540.428 541.537 648.631" stroke="#7251D6" stroke-width="3"/>
<path opacity="0.631579" d="M86.2804 130.158C73.9557 152.328 62.7713 210.629 116.631 266.469C183.956 336.269 278.482 332.771 353.149 388.578C408.259 429.767 519.946 556.649 506.779 664.064" stroke="#7251D6" stroke-width="3"/>
<path opacity="0.684211" d="M107.361 101.609C92.7861 122.37 75.5689 179.182 123.297 240.346C182.957 316.801 277.331 323.203 345.756 386.509C396.258 433.233 494.071 571.094 469.747 676.545" stroke="#7251D6" stroke-width="3"/>
<path opacity="0.736842" d="M130.46 76.1845C113.796 95.3081 90.7342 150.01 131.807 215.827C183.149 298.099 276.336 314.332 337.769 384.443C383.111 436.19 465.977 583.52 430.765 685.85" stroke="#7251D6" stroke-width="3"/>
<path opacity="0.789474" d="M155.241 54.0795C136.668 71.3564 108.015 123.348 141.984 193.098C184.444 280.286 275.424 306.17 329.192 382.319C368.877 438.522 435.889 593.707 390.172 691.796" stroke="#7251D6" stroke-width="3"/>
<path opacity="0.842105" d="M181.348 35.4499C161.071 50.6907 127.14 99.4022 153.631 172.321C186.746 263.47 274.522 298.722 320.035 380.074C353.628 440.117 404.052 601.457 348.333 694.23" stroke="#7251D6" stroke-width="3"/>
<path opacity="0.894737" d="M208.408 20.4173C186.649 33.4552 147.812 78.3531 166.536 153.642C189.942 247.752 273.552 291.987 310.313 377.65C337.445 440.876 370.728 606.603 305.617 693.043" stroke="#7251D6" stroke-width="3"/>
<path opacity="0.947368" d="M236.042 9.06013C213.04 19.7522 169.723 60.3447 180.475 137.178C193.914 233.22 272.444 285.952 300.048 374.988C320.423 440.704 336.2 609.001 262.41 688.162" stroke="#7251D6" stroke-width="3"/>
<path d="M263.863 1.41895C239.869 9.64804 192.546 45.4903 195.208 123.027C198.534 219.947 271.121 280.598 289.268 372.033C302.662 439.518 300.761 608.543 219.101 679.557" stroke="#7251D6" stroke-width="3"/>
</svg>
